<svg width="14" height="12" viewBox="0 0 14 12" fill="none" xmlns="http://www.w3.org/2000/svg">
<path d="M7.00004 9.66667C7.83337 9.66667 8.54171 9.375 9.12504 8.79167C9.70837 8.20833 10 7.5 10 6.66667C10 5.83333 9.70837 5.125 9.12504 4.54167C8.54171 3.95833 7.83337 3.66667 7.00004 3.66667C6.16671 3.66667 5.45837 3.95833 4.87504 4.54167C4.29171 5.125 4.00004 5.83333 4.00004 6.66667C4.00004 7.5 4.29171 8.20833 4.87504 8.79167C5.45837 9.375 6.16671 9.66667 7.00004 9.66667ZM7.00004 8.33333C6.53337 8.33333 6.13893 8.17222 5.81671 7.85C5.49449 7.52778 5.33337 7.13333 5.33337 6.66667C5.33337 6.2 5.49449 5.80556 5.81671 5.48333C6.13893 5.16111 6.53337 5 7.00004 5C7.46671 5 7.86115 5.16111 8.18337 5.48333C8.5056 5.80556 8.66671 6.2 8.66671 6.66667C8.66671 7.13333 8.5056 7.52778 8.18337 7.85C7.86115 8.17222 7.46671 8.33333 7.00004 8.33333ZM1.66671 12C1.30004 12 0.986152 11.8694 0.725041 11.6083C0.46393 11.3472 0.333374 11.0333 0.333374 10.6667V2.66667C0.333374 2.3 0.46393 1.98611 0.725041 1.725C0.986152 1.46389 1.30004 1.33333 1.66671 1.33333H3.76671L5.00004 0H9.00004L10.2334 1.33333H12.3334C12.7 1.33333 13.0139 1.46389 13.275 1.725C13.5362 1.98611 13.6667 2.3 13.6667 2.66667V10.6667C13.6667 11.0333 13.5362 11.3472 13.275 11.6083C13.0139 11.8694 12.7 12 12.3334 12H1.66671ZM1.66671 10.6667H12.3334V2.66667H9.63337L8.41671 1.33333H5.58337L4.36671 2.66667H1.66671V10.6667Z" fill="#535353"/>
</svg>
