<svg width="19" height="18" viewBox="0 0 19 18" fill="none" xmlns="http://www.w3.org/2000/svg">
<path d="M5.75 16.5C5.3375 16.5 4.98438 16.3531 4.69063 16.0594C4.39688 15.7656 4.25 15.4125 4.25 15C4.25 14.5875 4.39688 14.2344 4.69063 13.9406C4.98438 13.6469 5.3375 13.5 5.75 13.5C6.1625 13.5 6.51562 13.6469 6.80938 13.9406C7.10313 14.2344 7.25 14.5875 7.25 15C7.25 15.4125 7.10313 15.7656 6.80938 16.0594C6.51562 16.3531 6.1625 16.5 5.75 16.5ZM13.25 16.5C12.8375 16.5 12.4844 16.3531 12.1906 16.0594C11.8969 15.7656 11.75 15.4125 11.75 15C11.75 14.5875 11.8969 14.2344 12.1906 13.9406C12.4844 13.6469 12.8375 13.5 13.25 13.5C13.6625 13.5 14.0156 13.6469 14.3094 13.9406C14.6031 14.2344 14.75 14.5875 14.75 15C14.75 15.4125 14.6031 15.7656 14.3094 16.0594C14.0156 16.3531 13.6625 16.5 13.25 16.5ZM5.1125 4.5L6.9125 8.25H12.1625L14.225 4.5H5.1125ZM4.4 3H15.4625C15.75 3 15.9688 3.12813 16.1188 3.38438C16.2688 3.64062 16.275 3.9 16.1375 4.1625L13.475 8.9625C13.3375 9.2125 13.1531 9.40625 12.9219 9.54375C12.6906 9.68125 12.4375 9.75 12.1625 9.75H6.575L5.75 11.25H14.75V12.75H5.75C5.1875 12.75 4.7625 12.5031 4.475 12.0094C4.1875 11.5156 4.175 11.025 4.4375 10.5375L5.45 8.7L2.75 3H1.25V1.5H3.6875L4.4 3Z" fill="#F9F9F9"/>
</svg>
