<svg width="46" height="46" viewBox="0 0 46 46" fill="none" xmlns="http://www.w3.org/2000/svg">
<path d="M7.63869 39.3618L15.781 41.1357C15.997 41.1828 16.2228 41.1421 16.4087 41.0227C16.5947 40.9033 16.7256 40.7148 16.7727 40.4989C16.8197 40.2829 16.779 40.0572 16.6596 39.8712C16.5402 39.6852 16.3518 39.5543 16.1358 39.5073L7.99348 37.7333C7.77753 37.6863 7.55173 37.727 7.36577 37.8464C7.1798 37.9658 7.0489 38.1542 7.00185 38.3702C6.9548 38.5861 6.99547 38.8119 7.1149 38.9979C7.23433 39.1839 7.42274 39.3148 7.63869 39.3618ZM29.623 44.1514L36.9511 45.748C37.167 45.795 37.3928 45.7543 37.5788 45.6349C37.7648 45.5155 37.8957 45.3271 37.9427 45.1111C37.9898 44.8952 37.9491 44.6694 37.8297 44.4834C37.7102 44.2974 37.5218 44.1665 37.3059 44.1195L29.9778 42.5229C29.7618 42.4759 29.536 42.5166 29.3501 42.636C29.1641 42.7554 29.0332 42.9438 28.9862 43.1598C28.9391 43.3757 28.9798 43.6015 29.0992 43.7875C29.2186 43.9735 29.407 44.1044 29.623 44.1514ZM19.038 41.8453L20.6664 42.2001C20.8824 42.2471 21.1082 42.2065 21.2941 42.087C21.4801 41.9676 21.611 41.7792 21.6581 41.5633C21.7051 41.3473 21.6644 41.1215 21.545 40.9355C21.4256 40.7496 21.2372 40.6187 21.0212 40.5716L19.3927 40.2168C19.1768 40.1698 18.951 40.2105 18.765 40.3299C18.5791 40.4493 18.4482 40.6377 18.4011 40.8537C18.3541 41.0696 18.3947 41.2954 18.5142 41.4814C18.6336 41.6674 18.822 41.7983 19.038 41.8453Z" fill="#747575"/>
<path d="M25.0285 26.0928L24.1415 30.164L30.6554 31.5831C31.7352 31.8184 32.6772 32.4729 33.2744 33.4027C33.8715 34.3326 34.0749 35.4615 33.8396 36.5413L33.13 39.7982L38.8297 41.0399L39.5393 37.783C40.1038 35.1916 39.6159 32.4821 38.1827 30.2505C36.7495 28.0189 34.4885 26.4481 31.8972 25.8835L27.0118 24.8191C26.5799 24.725 26.1283 24.8064 25.7564 25.0452C25.3844 25.2841 25.1226 25.6609 25.0285 26.0928Z" fill="#C4455E"/>
<path d="M27.0121 24.8194L31.8975 25.8837C33.7565 26.2898 35.4611 27.2178 36.8111 28.5589C38.1611 29.8999 39.1005 31.5983 39.5189 33.4546C36.9041 28.9361 33.0426 28.6919 28.1084 27.6169C27.6765 27.5228 27.2249 27.6041 26.8529 27.843C26.481 28.0818 26.2192 28.4586 26.1251 28.8905L25.7703 30.519L24.1419 30.1642L25.0288 26.0931C25.1229 25.6612 25.3847 25.2843 25.7567 25.0455C26.1286 24.8066 26.5802 24.7253 27.0121 24.8194ZM11.2915 26.5117L12.7745 35.3636L22.5453 37.4923L23.2549 34.2354L17.9705 33.0841C17.5612 32.9965 17.1999 32.7581 16.9583 32.4163C16.7168 32.0745 16.6127 31.6543 16.6667 31.2393C19.0396 13.8884 18.7899 15.5824 18.8378 15.3626L15.4035 15.4672C14.9887 16.5879 15.6601 14.7982 11.2915 26.5117Z" fill="#D21E6A"/>
<path d="M11.292 26.5116C12.5109 33.7963 12.5599 33.6108 12.4784 33.5931C12.6588 33.6317 12.8459 33.6257 13.0235 33.5757C13.2011 33.5256 13.3637 33.4329 13.4973 33.3057C13.6309 33.1785 13.7315 33.0206 13.7902 32.8457C13.8489 32.6708 13.8641 32.4842 13.8343 32.3021L12.9205 26.8663C17.2891 15.1528 16.6213 16.9263 17.0325 15.8219C19.0931 15.7591 18.7584 15.925 18.8383 15.3624L15.404 15.4671C14.9893 16.5878 15.6606 14.798 11.292 26.5116Z" fill="#F26674"/>
<path d="M13.3883 9.05788L12.3239 13.9433C12.2769 14.1592 12.3175 14.385 12.437 14.571C12.5564 14.757 12.7448 14.8879 12.9608 14.9349L17.0319 15.8219C17.8957 16.0101 18.7989 15.8474 19.5428 15.3697C20.2866 14.892 20.8102 14.1383 20.9984 13.2745C21.1866 12.4107 21.024 11.5075 20.5462 10.7637C20.0685 10.0198 19.3149 9.4962 18.4511 9.30801L14.3799 8.42104C14.164 8.37399 13.9382 8.41466 13.7522 8.53409C13.5662 8.65352 13.4353 8.84193 13.3883 9.05788Z" fill="#D21E6A"/>
<path d="M15.1119 16.2564C16.7404 16.6112 17.5769 16.9214 18.6806 16.5137C18.8803 14.9708 18.9697 16.244 17.0318 15.8218L15.4033 15.467L15.1119 16.2564Z" fill="#C4455E"/>
<path d="M10.4138 10.9686C10.2727 11.6165 10.3946 12.2939 10.7529 12.8517C11.1112 13.4096 11.6765 13.8024 12.3243 13.9435L13.3887 9.05811C12.7408 8.91696 12.0634 9.03896 11.5056 9.39725C10.9477 9.75554 10.5549 10.3208 10.4138 10.9686Z" fill="#FFCC66"/>
<path d="M10.4948 12.3165C10.8264 12.6335 11.2388 12.8532 11.687 12.9515L12.542 9.02686C12.1741 9.07404 11.8213 9.2025 11.5091 9.40292C11.197 9.60335 10.9334 9.87072 10.7374 10.1856C10.5414 10.5006 10.418 10.8552 10.376 11.2237C10.3341 11.5923 10.3746 11.9655 10.4948 12.3165Z" fill="#FFDE76"/>
<path d="M19.1927 13.7339L24.0781 14.7982C24.294 14.8453 24.5198 14.8046 24.7058 14.6852C24.8917 14.5658 25.0226 14.3773 25.0697 14.1614C25.1167 13.9455 25.0761 13.7197 24.9566 13.5337C24.8372 13.3477 24.6488 13.2168 24.4328 13.1698L19.5474 12.1054C19.3315 12.0584 19.1057 12.099 18.9197 12.2185C18.7338 12.3379 18.6029 12.5263 18.5558 12.7423C18.5088 12.9582 18.5494 13.184 18.6689 13.37C18.7883 13.5559 18.9767 13.6868 19.1927 13.7339Z" fill="#374F68"/>
<path d="M1.37534 32.8798L12.7746 35.3633C11.1514 25.6279 11.4056 26.5362 11.0229 26.4528C8.89513 26.0623 6.6989 26.5146 4.89851 27.7139C3.09812 28.9133 1.83469 30.7658 1.37534 32.8798Z" fill="#C4455E"/>
<path d="M1.89328 31.2869L12.4783 33.593L11.2919 26.5114C9.41494 26.1021 7.45419 26.3539 5.7415 27.2241C4.0288 28.0943 2.66938 29.5295 1.89328 31.2869Z" fill="#D21E6A"/>
<path d="M25.8024 38.2019C25.5202 39.4975 25.7641 40.8523 26.4807 41.9681C27.1973 43.0839 28.3278 43.8693 29.6235 44.1516C30.9192 44.4339 32.2739 44.1899 33.3897 43.4733C34.5055 42.7567 35.291 41.6263 35.5732 40.3306L25.8024 38.2019ZM3.71403 34.2424C3.43179 39.8441 11.2665 41.5425 13.3383 36.3392L3.71403 34.2424Z" fill="#374F68"/>
<path d="M29.0595 38.9115C28.9654 39.3434 29.0467 39.795 29.2856 40.1669C29.5244 40.5389 29.9013 40.8007 30.3332 40.8948C30.7651 40.9889 31.2166 40.9075 31.5886 40.6687C31.9605 40.4298 32.2223 40.053 32.3164 39.6211L29.0595 38.9115ZM7.11762 34.984C7.207 35.262 7.36785 35.5116 7.58404 35.7079C7.80023 35.9041 8.06419 36.0401 8.34948 36.1023C8.63477 36.1644 8.93138 36.1505 9.20962 36.062C9.48785 35.9735 9.73795 35.8134 9.93486 35.5978L7.11762 34.984Z" fill="#7C7D7D"/>
<path d="M43.7969 18.2417L32.3976 15.7582L30.2689 25.529L41.6682 28.0125L43.7969 18.2417Z" fill="#A87E6B"/>
<path d="M32.3977 15.7578L30.6238 23.9001L35.5092 24.9645C36.373 25.1527 37.2761 24.99 38.02 24.5123C38.7639 24.0346 39.2875 23.2809 39.4757 22.4171L40.54 17.5317L32.3977 15.7578Z" fill="#BE927C"/>
<path d="M25.384 24.4646L30.2694 25.529L30.979 22.272C29.4238 21.9332 27.6712 21.287 26.1785 22.9319C25.7837 23.3642 25.5096 23.8928 25.384 24.4646Z" fill="#2C435E"/>
<path d="M26.1785 22.9319L30.6242 23.9005L30.979 22.272C29.4238 21.9332 27.6712 21.287 26.1785 22.9319Z" fill="#374F68"/>
<path d="M36.4687 16.6449L35.4043 21.5303L37.2102 21.0709L38.6612 22.2399L39.7256 17.3545L36.4687 16.6449Z" fill="#F6CCAF"/>
<path d="M13.3886 9.05783L12.5016 13.129L13.3159 13.3064C14.6116 13.5887 15.9663 13.3447 17.0821 12.6281C18.1979 11.9115 18.9833 10.781 19.2656 9.48535L14.3802 8.42099C14.1643 8.37395 13.9385 8.41461 13.7525 8.53404C13.5665 8.65347 13.4356 8.84189 13.3886 9.05783Z" fill="#F26674"/>
<path d="M19.088 10.2995C19.6987 10.4325 19.5971 10.3507 23.1733 6.54133C23.3081 6.38345 23.3792 6.1809 23.3725 5.97338C23.3659 5.76585 23.282 5.56828 23.1373 5.41937C22.9926 5.27046 22.7975 5.18094 22.5902 5.16833C22.383 5.15572 22.1785 5.22093 22.0168 5.3512L18.6871 8.89019C18.5798 8.99508 18.5028 9.12701 18.4642 9.27204C18.4257 9.41707 18.427 9.56982 18.468 9.71417C18.5091 9.85851 18.5884 9.98909 18.6975 10.0921C18.8066 10.1951 18.9415 10.2668 19.088 10.2995Z" fill="#374F68"/>
<path d="M23.2323 6.93808L25.675 7.47026L26.3846 4.21332L23.9419 3.68115C23.51 3.58705 23.0584 3.66838 22.6865 3.90724C22.3145 4.1461 22.0527 4.52293 21.9586 4.95483C21.8645 5.38672 21.9459 5.83831 22.1847 6.21024C22.4236 6.58217 22.8004 6.84398 23.2323 6.93808ZM24.1423 30.1641L22.5458 37.4922L33.1308 39.7983L33.8404 36.5414C34.0757 35.4617 33.8723 34.3327 33.2752 33.4029C32.678 32.473 31.736 31.8185 30.6562 31.5833L24.1423 30.1641Z" fill="#D21E6A"/>
<path d="M30.6557 31.5832C31.3853 31.7472 32.0574 32.1045 32.6014 32.6177C33.1453 33.1308 33.5412 33.781 33.7473 34.4998C32.6859 33.5778 32.5156 33.6942 25.4155 32.1473L24.1737 37.8469L22.5453 37.4922L24.1418 30.164L30.6557 31.5832Z" fill="#F26674"/>
<path d="M36.4694 16.6451L35.7598 19.902L36.5741 20.0794C37.006 20.1735 37.4576 20.0922 37.8295 19.8533C38.2014 19.6144 38.4632 19.2376 38.5573 18.8057L38.9121 17.1772L36.4694 16.6451Z" fill="#FFDEC7"/>
<path d="M7.0751 34.1215C7.0133 34.4076 7.02794 34.7049 7.11755 34.9836L9.9348 35.5974C10.1322 35.3813 10.2692 35.117 10.332 34.8311L7.0751 34.1215Z" fill="#747575"/>
<path d="M10.3319 34.8314C10.2691 35.1173 10.1321 35.3816 9.93469 35.5978L13.3382 36.3393C13.446 36.0814 13.5299 35.8142 13.5889 35.541L10.3319 34.8314ZM3.81805 33.4123C3.75797 33.6853 3.72312 33.9632 3.71394 34.2425L7.11744 34.984C7.02783 34.7053 7.01318 34.408 7.07499 34.1219L3.81805 33.4123Z" fill="#2C435E"/>
<path d="M29.0595 38.9115C28.9977 39.1976 29.0123 39.495 29.1019 39.7737L31.9192 40.3874C32.1166 40.1713 32.2536 39.907 32.3164 39.6211L29.0595 38.9115Z" fill="#747575"/>
<path d="M32.3163 39.621C32.2535 39.9069 32.1165 40.1712 31.9191 40.3873L35.3226 41.1288C35.4304 40.871 35.5143 40.6038 35.5732 40.3306L32.3163 39.621ZM25.8024 38.2018C25.7423 38.4748 25.7075 38.7527 25.6983 39.032L29.1018 39.7735C29.0122 39.4949 28.9976 39.1975 29.0594 38.9114L25.8024 38.2018Z" fill="#2C435E"/>
</svg>
