<svg width="20" height="20" viewBox="0 0 20 20" fill="none" xmlns="http://www.w3.org/2000/svg">
<path d="M9.99992 9.99984C10.4583 9.99984 10.8506 9.83664 11.177 9.51025C11.5034 9.18387 11.6666 8.7915 11.6666 8.33317C11.6666 7.87484 11.5034 7.48248 11.177 7.15609C10.8506 6.8297 10.4583 6.6665 9.99992 6.6665C9.54158 6.6665 9.14922 6.8297 8.82283 7.15609C8.49645 7.48248 8.33325 7.87484 8.33325 8.33317C8.33325 8.7915 8.49645 9.18387 8.82283 9.51025C9.14922 9.83664 9.54158 9.99984 9.99992 9.99984ZM9.99992 16.1248C11.6944 14.5693 12.9513 13.1561 13.7708 11.8853C14.5902 10.6144 14.9999 9.48595 14.9999 8.49984C14.9999 6.98595 14.5173 5.74637 13.552 4.78109C12.5867 3.81581 11.4027 3.33317 9.99992 3.33317C8.59714 3.33317 7.41311 3.81581 6.44784 4.78109C5.48256 5.74637 4.99992 6.98595 4.99992 8.49984C4.99992 9.48595 5.40964 10.6144 6.22909 11.8853C7.04853 13.1561 8.30547 14.5693 9.99992 16.1248ZM9.99992 18.3332C7.76381 16.4304 6.09367 14.663 4.9895 13.0311C3.88534 11.3991 3.33325 9.88873 3.33325 8.49984C3.33325 6.4165 4.00339 4.75678 5.34367 3.52067C6.68395 2.28456 8.23603 1.6665 9.99992 1.6665C11.7638 1.6665 13.3159 2.28456 14.6562 3.52067C15.9964 4.75678 16.6666 6.4165 16.6666 8.49984C16.6666 9.88873 16.1145 11.3991 15.0103 13.0311C13.9062 14.663 12.236 16.4304 9.99992 18.3332Z" fill="#D21E6A"/>
</svg>
